<?xml version="1.0" encoding="utf-8"?>
<!-- Uploaded to: SVG Repo, www.svgrepo.com, Generator: SVG Repo Mixer Tools -->
<svg fill="#FFF" width="800px" height="800px" viewBox="0 0 32 32" version="1.1" xmlns="http://www.w3.org/2000/svg">
<title>chan</title>
<path d="M14.838 12.026s-1.583-9.673-7.404-9.651c-3.923 0.015-5.455 3.783-2.612 4.63 0 0-3.371 1.216-3.371 3.37 0 2.156 5.341 4.424 13.387 1.649zM17.251 19.429s1.13 9.736 6.945 9.986c3.919 0.169 5.627-3.524 2.827-4.504 0 0 3.424-1.056 3.524-3.208 0.1-2.153-5.13-4.67-13.296-2.274zM12.663 17.492s-9.412 2.737-8.687 8.514c0.487 3.891 4.411 4.96 4.911 2.037 0 0 1.612 3.198 3.751 2.938s3.749-5.836 0.025-13.488zM19.689 14.409s9.656-1.687 9.572-7.508c-0.058-3.921-3.841-5.415-4.659-2.563 0 0-1.25-3.356-3.406-3.334-2.154 0.023-4.366 5.388-1.507 13.404z"></path>
</svg>